<svg xmlns="http://www.w3.org/2000/svg" viewBox="0 0 124.42 50.14"><defs><style>.cls-1{fill:#fff;}</style></defs><g id="Layer_2" data-name="Layer 2"><g id="Layer_1-2" data-name="Layer 1"><rect class="cls-1" width="124.42" height="50.14"/><path d="M38.15,13.63a2.42,2.42,0,0,0-.56.12,1.59,1.59,0,0,0-.51.33,2.35,2.35,0,0,0-.39.54l-5.8,11.1c-.16.28-.3.58-.44.88-.13-.28-.27-.56-.41-.83L24.18,14.62a2,2,0,0,0-.37-.53,1.69,1.69,0,0,0-.51-.34,2.39,2.39,0,0,0-.57-.12H18.31V35.75h5V23.11l4.75,9a2.25,2.25,0,0,0,.85,1,2.33,2.33,0,0,0,1.21.32h.6a2.22,2.22,0,0,0,2.06-1.26l4.72-9V35.75h5V13.62H38.15Z"/><path d="M65.57,13.63a2.42,2.42,0,0,0-.56.12,1.59,1.59,0,0,0-.51.33,2.35,2.35,0,0,0-.39.54l-5.8,11.1c-.16.28-.3.58-.44.88-.13-.28-.27-.56-.41-.83L51.6,14.62a2,2,0,0,0-.37-.53,1.69,1.69,0,0,0-.51-.34,2.39,2.39,0,0,0-.57-.12H45.73V35.75h5V23.11l4.75,9a2.25,2.25,0,0,0,.85,1,2.33,2.33,0,0,0,1.21.32h.6a2.22,2.22,0,0,0,2.06-1.26l4.72-9V35.75h5V13.62H65.57Z"/><path d="M86.26,30.88h-4.7a8,8,0,0,0-1,.06l3-3.1c.57-.57,1.11-1.15,1.61-1.7a15.13,15.13,0,0,0,1.38-1.8,9.41,9.41,0,0,0,1-2A7.34,7.34,0,0,0,87.94,20a6.73,6.73,0,0,0-.53-2.69,6,6,0,0,0-1.49-2.11,6.68,6.68,0,0,0-2.29-1.35,8.66,8.66,0,0,0-2.91-.47,9.18,9.18,0,0,0-2.81.41,7,7,0,0,0-2.38,1.25,7,7,0,0,0-1.74,2.1A8.71,8.71,0,0,0,72.86,20l-.09.59,2.7.48a2.55,2.55,0,0,0,1.63-.17,2.3,2.3,0,0,0,1-1.33,2.07,2.07,0,0,1,.32-.67,2.42,2.42,0,0,1,.52-.54,2.51,2.51,0,0,1,.69-.36,2.63,2.63,0,0,1,.86-.14,2.13,2.13,0,0,1,1.6.55,2.36,2.36,0,0,1,.54,1.7,5.29,5.29,0,0,1-.17,1.34,5.68,5.68,0,0,1-.55,1.28,9,9,0,0,1-1,1.34,19.59,19.59,0,0,1-1.36,1.48l-6.19,6.2a2.88,2.88,0,0,0-.68,1,3,3,0,0,0-.2,1v1.91H88.25v-3a1.92,1.92,0,0,0-.55-1.39A2,2,0,0,0,86.26,30.88Z"/><path d="M105.4,31.41a2,2,0,0,0-1.45-.53H99.26a8.27,8.27,0,0,0-1,.06l3-3.1c.56-.57,1.1-1.15,1.6-1.7a14.14,14.14,0,0,0,1.38-1.8,9.46,9.46,0,0,0,1-2,7.34,7.34,0,0,0,.36-2.33,6.72,6.72,0,0,0-.52-2.69,6,6,0,0,0-1.49-2.11,6.87,6.87,0,0,0-2.29-1.35,8.66,8.66,0,0,0-2.91-.47,9.2,9.2,0,0,0-2.82.41,7,7,0,0,0-2.37,1.25,6.89,6.89,0,0,0-1.74,2.1A8.72,8.72,0,0,0,90.55,20l-.08.59,2.7.48a2.56,2.56,0,0,0,1.63-.17,2.3,2.3,0,0,0,1-1.33,2,2,0,0,1,.31-.67,2.47,2.47,0,0,1,.53-.54,2.51,2.51,0,0,1,.69-.36,2.63,2.63,0,0,1,.86-.14,2.14,2.14,0,0,1,1.6.55,2.36,2.36,0,0,1,.54,1.7,4.87,4.87,0,0,1-.18,1.34,5.64,5.64,0,0,1-.54,1.28,9,9,0,0,1-1,1.34c-.39.47-.85,1-1.36,1.48l-6.19,6.2a2.64,2.64,0,0,0-.68,1,3,3,0,0,0-.2,1v1.91H106v-3A1.92,1.92,0,0,0,105.4,31.41Z"/></g></g></svg>