<svg xmlns="http://www.w3.org/2000/svg" viewBox="0 0 321.85 36.57"><g id="Layer_2" data-name="Layer 2"><g id="Layer_1-2" data-name="Layer 1"><path d="M32.45,0a2.89,2.89,0,0,0-.91.19,2.58,2.58,0,0,0-.83.54,3.3,3.3,0,0,0-.65.88L20.58,19.8c-.25.46-.49.94-.72,1.43-.21-.46-.44-.91-.68-1.35L9.61,1.64A3.8,3.8,0,0,0,9,.77,2.61,2.61,0,0,0,8.17.22,3,3,0,0,0,7.24,0q-.37,0-.87,0H0V36.19H8.24V15.53L16,30.24a3.75,3.75,0,0,0,1.39,1.55,3.7,3.7,0,0,0,2,.54h1a3.62,3.62,0,0,0,3.36-2.07L31.46,15.6V36.19H39.7V0H33.33C33,0,32.7,0,32.45,0Z"/><path d="M66.17,21.36a9.78,9.78,0,0,1-.45,3.08,6.2,6.2,0,0,1-1.23,2.22A5.49,5.49,0,0,1,62.54,28a7.59,7.59,0,0,1-5.42,0,5.4,5.4,0,0,1-1.95-1.38,6.22,6.22,0,0,1-1.24-2.22,10.09,10.09,0,0,1-.44-3.08V0H44.42V21.36a16.79,16.79,0,0,0,1.07,6.07,13.91,13.91,0,0,0,3.08,4.84,14.16,14.16,0,0,0,4.88,3.17,18.6,18.6,0,0,0,12.77,0,14.22,14.22,0,0,0,4.86-3.17,13.94,13.94,0,0,0,3.09-4.84,16.79,16.79,0,0,0,1.07-6.07V0H66.17Z"/><polygon points="89.05 0 79.98 0 79.98 36.19 102.27 36.19 102.27 28.44 89.05 28.44 89.05 0"/><polygon points="97.58 7.7 107.57 7.7 107.57 36.19 116.66 36.19 116.66 7.7 126.65 7.7 126.65 0 97.58 0 97.58 7.7"/><rect x="128.92" width="9.12" height="36.19"/><rect x="142.19" y="17.25" width="14.44" height="7.33"/><path d="M193.25,0a2.89,2.89,0,0,0-.91.19,2.58,2.58,0,0,0-.83.54,3.3,3.3,0,0,0-.65.88L181.38,19.8c-.25.46-.49.94-.72,1.43-.21-.46-.44-.91-.68-1.35L170.41,1.64a3.8,3.8,0,0,0-.61-.87A2.61,2.61,0,0,0,169,.22,3,3,0,0,0,168,0q-.37,0-.87,0H160.8V36.19H169V15.53l7.77,14.71a3.75,3.75,0,0,0,1.39,1.55,3.7,3.7,0,0,0,2,.54h1a3.62,3.62,0,0,0,3.36-2.07l7.73-14.66V36.19h8.24V0h-6.37C193.79,0,193.5,0,193.25,0Z"/><path d="M215.32,0,201.17,36.19h7a3.23,3.23,0,0,0,2.12-.71A3.7,3.7,0,0,0,211.43,34l2.07-5.86h12.21L227.8,34A3.58,3.58,0,0,0,229,35.55a3.36,3.36,0,0,0,2.1.64H238L223.92,0Zm3.82,12.16c.15-.37.31-.8.47-1.26.15.44.3.84.44,1.18l3.23,9.13H216Z"/><path d="M261.77,20.56v.2L246.59,1.48A6.21,6.21,0,0,0,246,.8a3.73,3.73,0,0,0-.72-.5,3.08,3.08,0,0,0-.91-.26,7.56,7.56,0,0,0-.88,0h-4.72V36.19H247V15.38l15.12,19.24a4.28,4.28,0,0,0,1.45,1.2,4.14,4.14,0,0,0,1.82.37H270V0h-8.25Z"/><rect x="275.18" width="9.12" height="36.19"/><path d="M307.73,0h-8.6L285,36.19h7a3.25,3.25,0,0,0,2.12-.71A3.67,3.67,0,0,0,295.24,34l2.08-5.86h12.2l2.1,5.91a3.5,3.5,0,0,0,1.18,1.53,3.34,3.34,0,0,0,2.1.64h7ZM303,12.16c.15-.37.31-.8.47-1.26.15.44.3.84.44,1.18l3.23,9.13h-7.33Z"/></g></g></svg>